<svg width="21" height="20" viewBox="0 0 21 20" fill="none" xmlns="http://www.w3.org/2000/svg">
<path d="M19.4095 14.0999V16.5999C19.4105 16.832 19.3597 17.0617 19.2605 17.2744C19.1612 17.487 19.0156 17.6779 18.833 17.8348C18.6504 17.9917 18.4349 18.1112 18.2001 18.1855C17.9654 18.2599 17.7167 18.2875 17.4699 18.2666C14.7321 17.988 12.1022 17.1117 9.79163 15.7083C7.64192 14.4288 5.81934 12.7217 4.45332 10.7083C2.94967 8.53426 2.01393 6.05908 1.72188 3.48325C1.69965 3.25281 1.72889 3.02055 1.80774 2.80127C1.88659 2.58199 2.01333 2.38049 2.17988 2.2096C2.34643 2.03871 2.54915 1.90218 2.77512 1.80869C3.0011 1.7152 3.24538 1.6668 3.49242 1.66658H6.16158C6.59337 1.6626 7.01196 1.80582 7.33935 2.06953C7.66674 2.33324 7.88058 2.69946 7.94102 3.09992C8.05368 3.89997 8.26261 4.68552 8.56382 5.44158C8.68353 5.73985 8.70943 6.06401 8.63847 6.37565C8.56751 6.68729 8.40266 6.97334 8.16345 7.19992L7.0335 8.25825C8.30007 10.3445 10.1444 12.072 12.3718 13.2583L13.5018 12.1999C13.7437 11.9759 14.0491 11.8215 14.3818 11.755C14.7145 11.6885 15.0606 11.7128 15.3791 11.8249C16.1863 12.107 17.025 12.3027 17.8792 12.4083C18.3114 12.4654 18.7061 12.6693 18.9882 12.9812C19.2704 13.2931 19.4203 13.6912 19.4095 14.0999Z" stroke="#B00000" stroke-width="2" stroke-linecap="round" stroke-linejoin="round"/>
</svg>
